<svg width="26" height="26" viewBox="0 0 26 26" fill="none" xmlns="http://www.w3.org/2000/svg">
<path d="M6.4202 15.4656L5.59745 18.537L2.59033 18.6006C1.69164 16.9338 1.18188 15.0266 1.18188 13C1.18188 11.0403 1.65849 9.1922 2.50331 7.56494H2.50395L5.18114 8.05576L6.35391 10.7169C6.10845 11.4325 5.97467 12.2007 5.97467 13C5.97476 13.8675 6.1319 14.6987 6.4202 15.4656Z" fill="#FBBB00"/>
<path d="M24.6119 10.792C24.7476 11.5069 24.8184 12.2452 24.8184 12.9998C24.8184 13.8459 24.7294 14.6712 24.5599 15.4673C23.9846 18.1764 22.4814 20.542 20.3989 22.216L20.3983 22.2154L17.0262 22.0433L16.549 19.0641C17.9308 18.2537 19.0107 16.9855 19.5795 15.4673H13.26V10.792H19.6717H24.6119Z" fill="#518EF8"/>
<path d="M20.3981 22.2153L20.3988 22.216C18.3735 23.8439 15.8007 24.8179 13.0001 24.8179C8.49942 24.8179 4.58645 22.3023 2.59033 18.6004L6.42021 15.4653C7.41824 18.1289 9.98773 20.0251 13.0001 20.0251C14.2949 20.0251 15.5079 19.6751 16.5488 19.064L20.3981 22.2153Z" fill="#28B446"/>
<path d="M20.5437 3.90241L16.7151 7.03681C15.6379 6.36345 14.3644 5.97447 13.0002 5.97447C9.91965 5.97447 7.30211 7.95757 6.35407 10.7167L2.50406 7.56475H2.50342C4.47031 3.77255 8.43264 1.18164 13.0002 1.18164C15.8677 1.18164 18.4969 2.20308 20.5437 3.90241Z" fill="#F14336"/>
</svg>
